<mxfile host="app.diagrams.net" modified="2023-07-23T06:34:17.405Z" agent="Mozilla/5.0 (Windows NT 10.0; Win64; x64) AppleWebKit/537.36 (KHTML, like Gecko) Chrome/114.0.0.0 Safari/537.36" version="21.6.5" etag="mQ5Pnegyu5ZV4S3c2_si" type="github">
  <diagram name="Page-1" id="p5gdHKRJ8H7kNj0qZFrq">
    <mxGraphModel>
      <root>
        <mxCell id="0" />
        <mxCell id="1" parent="0" />
      </root>
    </mxGraphModel>
  </diagram>
</mxfile>
